<svg width="22" height="32" viewBox="0 0 22 32" fill="none" xmlns="http://www.w3.org/2000/svg">
<path d="M10.9998 0C4.56539 0 -0.00773492 5.22125 -0.000234929 11.015C0.00351507 13.7825 1.03101 16.3069 2.72226 18.2362C4.32539 20.0644 5.86538 23.0425 5.99976 24L6.00351 28.6987C6.00351 28.8956 6.06226 29.0875 6.17101 29.2512L7.70288 31.5537C7.88851 31.8325 8.20101 32 8.53538 32H13.4635C13.7985 32 14.111 31.8325 14.296 31.5537L15.8279 29.2512C15.9366 29.0875 15.9948 28.895 15.9954 28.6987L15.9998 24C16.141 23.0175 17.6866 20.0506 19.2772 18.2362C20.9716 16.3031 21.9997 13.7731 21.9997 11C21.9997 4.925 17.0747 0 10.9998 0ZM13.996 28.3944L12.9279 30H9.07101L8.00288 28.3944L8.00226 28H13.996V28.3944ZM13.9985 26H8.00038L7.99601 24H14.001L13.9985 26ZM17.7735 16.9175C16.8991 17.915 15.5029 19.9237 14.6123 21.9994H7.38788C6.49663 19.9231 5.10101 17.915 4.22664 16.9175C2.78101 15.2687 2.00789 13.1781 2.00289 11C1.99164 6.18813 5.77663 2 10.9998 2C15.9622 2 19.9997 6.0375 19.9997 11C19.9997 13.1781 19.2091 15.28 17.7735 16.9175ZM10.9998 4C7.14038 4 3.99976 7.14062 3.99976 11C3.99976 11.5525 4.44726 12 4.99976 12C5.55226 12 5.99976 11.5525 5.99976 11C5.99976 8.24312 8.24226 6 10.9998 6C11.5523 6 11.9998 5.5525 11.9998 5C11.9998 4.4475 11.5523 4 10.9998 4Z" fill="#0A2540"/>
</svg>
